<?xml version="1.0" encoding="utf-8"?>
<!-- Generator: Adobe Illustrator 16.0.0, SVG Export Plug-In . SVG Version: 6.00 Build 0)  -->
<!DOCTYPE svg PUBLIC "-//W3C//DTD SVG 1.1//EN" "http://www.w3.org/Graphics/SVG/1.1/DTD/svg11.dtd">
<svg version="1.1" id="Lager_1" xmlns="http://www.w3.org/2000/svg" xmlns:xlink="http://www.w3.org/1999/xlink" x="0px" y="0px"
	 width="1133.858px" height="283.464px" viewBox="0 0 1133.858 283.464" enable-background="new 0 0 1133.858 283.464"
	 xml:space="preserve">
<g>
	<path fill="#005C9B" d="M94.604,91.597v38.207h40.272V91.597h21.892v99.546h-21.892v-42.958H94.604v42.958H72.712V91.597H94.604z"
		/>
	<path fill="#005C9B" d="M173.881,129.643c2.042-3.072,4.644-5.541,7.801-7.403c3.156-1.862,6.709-3.188,10.655-3.982
		c3.947-0.791,7.916-1.188,11.911-1.188c3.621,0,7.29,0.258,11.004,0.768c3.714,0.513,7.103,1.513,10.168,3.001
		c3.064,1.488,5.571,3.556,7.522,6.209c1.949,2.649,2.925,6.16,2.925,10.533v37.53l0.02,9.348c0.162,3.673,0.168,3.838,0.82,6.685
		l-19.021-0.003c-0.413-1.601-0.387-1.652-0.568-2.891c-0.168-1.152-0.158-2.867-0.252-4.068c-3.156,3.256-6.87,5.534-11.141,6.835
		c-4.271,1.3-8.634,1.952-13.09,1.952c-3.436,0-6.638-0.42-9.608-1.256c-2.972-0.835-5.572-2.139-7.8-3.907
		c-2.229-1.769-3.969-4.001-5.221-6.702c-1.254-2.698-1.88-5.908-1.88-9.633c0-4.096,0.72-7.467,2.159-10.119
		c1.439-2.653,3.297-4.77,5.572-6.354c2.275-1.581,4.874-2.769,7.799-3.56s5.873-1.416,8.845-1.885
		c2.97-0.465,5.896-0.836,8.774-1.116c2.879-0.277,5.433-0.697,7.661-1.255c2.229-0.559,3.993-1.372,5.294-2.443
		c1.3-1.071,1.904-2.63,1.811-4.679c0-2.139-0.347-3.837-1.041-5.095c-0.694-1.255-1.62-2.233-2.777-2.93
		c-1.157-0.697-2.5-1.162-4.026-1.394s-3.168-0.352-4.926-0.352c-3.887,0-6.941,0.842-9.161,2.527
		c-2.22,1.684-3.516,4.492-3.886,8.419h-19.826C170.677,136.581,171.838,132.715,173.881,129.643z M212.913,157.622
		c-1.252,0.419-2.596,0.768-4.032,1.045c-1.438,0.277-2.944,0.51-4.519,0.697c-1.577,0.188-3.153,0.42-4.728,0.697
		c-1.485,0.277-2.945,0.648-4.381,1.113s-2.688,1.094-3.754,1.885c-1.066,0.79-1.923,1.787-2.572,2.994
		c-0.648,1.21-0.973,2.742-0.973,4.602c0,1.766,0.324,3.253,0.973,4.459c0.649,1.211,1.528,2.162,2.642,2.859
		s2.411,1.185,3.894,1.465c1.482,0.278,3.012,0.417,4.59,0.417c3.892,0,6.904-0.649,9.037-1.952c2.132-1.301,3.708-2.855,4.728-4.67
		c1.02-1.811,1.645-3.646,1.877-5.505s0.349-3.347,0.349-4.463v-7.387C215.206,156.621,214.164,157.202,212.913,157.622z"/>
	<path fill="#005C9B" d="M686.18,129.643c2.043-3.072,4.643-5.541,7.801-7.403c3.156-1.862,6.709-3.188,10.656-3.982
		c3.945-0.791,7.914-1.188,11.91-1.188c3.621,0,7.289,0.258,11.004,0.768c3.715,0.513,7.102,1.513,10.168,3.001
		c3.064,1.488,5.572,3.556,7.521,6.209c1.949,2.649,2.926,6.16,2.926,10.533v37.53l0.02,9.348c0.162,3.673,0.168,3.838,0.82,6.685
		l-19.02-0.003c-0.414-1.601-0.389-1.652-0.568-2.891c-0.168-1.152-0.158-2.867-0.252-4.068c-3.156,3.256-6.871,5.534-11.141,6.835
		c-4.271,1.3-8.635,1.952-13.092,1.952c-3.434,0-6.637-0.42-9.607-1.256c-2.973-0.835-5.572-2.139-7.799-3.907
		c-2.229-1.769-3.971-4.001-5.223-6.702c-1.254-2.698-1.879-5.908-1.879-9.633c0-4.096,0.719-7.467,2.158-10.119
		c1.439-2.653,3.297-4.77,5.572-6.354c2.275-1.581,4.873-2.769,7.799-3.56s5.873-1.416,8.846-1.885
		c2.971-0.465,5.895-0.836,8.773-1.116c2.879-0.277,5.434-0.697,7.662-1.255c2.227-0.559,3.992-1.372,5.293-2.443
		s1.904-2.63,1.811-4.679c0-2.139-0.348-3.837-1.041-5.095c-0.693-1.255-1.619-2.233-2.777-2.93
		c-1.156-0.697-2.498-1.162-4.025-1.394c-1.525-0.232-3.168-0.352-4.926-0.352c-3.887,0-6.941,0.842-9.16,2.527
		c-2.221,1.684-3.518,4.492-3.887,8.419h-19.826C682.975,136.581,684.137,132.715,686.18,129.643z M725.211,157.622
		c-1.252,0.419-2.596,0.768-4.031,1.045c-1.438,0.277-2.945,0.51-4.52,0.697c-1.576,0.188-3.152,0.42-4.729,0.697
		c-1.484,0.277-2.943,0.648-4.381,1.113c-1.436,0.465-2.688,1.094-3.754,1.885c-1.066,0.79-1.924,1.787-2.572,2.994
		c-0.648,1.21-0.973,2.742-0.973,4.602c0,1.766,0.324,3.253,0.973,4.459c0.648,1.211,1.529,2.162,2.643,2.859
		s2.41,1.185,3.893,1.465c1.482,0.278,3.012,0.417,4.59,0.417c3.893,0,6.904-0.649,9.037-1.952c2.133-1.301,3.709-2.855,4.729-4.67
		c1.02-1.811,1.645-3.646,1.877-5.505c0.23-1.858,0.348-3.347,0.348-4.463v-7.387C727.504,156.621,726.461,157.202,725.211,157.622z
		"/>
	<path fill="#005C9B" d="M268.104,119.039v8.284h0.416c2.875-3.673,5.43-5.897,9.461-7.736c4.086-1.864,8.403-2.484,12.588-2.484
		c5.302,0,9.652,0.723,13.05,2.162c3.395,1.442,6.07,3.44,8.022,5.996c1.956,2.556,3.327,5.67,4.118,9.342s1.188,7.738,1.188,12.201
		v44.339h-19.827v-40.73c0-5.951-0.933-10.392-2.794-13.322c-1.865-2.93-5.173-4.395-9.923-4.395c-5.402,0-9.316,1.607-11.737,4.814
		c-2.423,3.208-3.633,8.484-3.633,15.832v37.801h-19.723v-72.104H268.104z"/>
	<path fill="#005C9B" d="M780.34,119.039v8.284h0.416c2.875-3.673,5.43-5.897,9.461-7.736c4.086-1.864,8.404-2.484,12.588-2.484
		c5.303,0,9.652,0.723,13.051,2.162c3.395,1.442,6.07,3.44,8.021,5.996c1.957,2.556,3.328,5.67,4.119,9.342
		c0.789,3.672,1.188,7.738,1.188,12.201v44.339h-19.828v-40.73c0-5.951-0.932-10.392-2.793-13.322
		c-1.865-2.93-5.174-4.395-9.924-4.395c-5.402,0-9.316,1.607-11.736,4.814c-2.424,3.208-3.633,8.484-3.633,15.832v37.801h-19.725
		v-72.104H780.34z"/>
	<path fill="#005C9B" d="M1012.189,119.039v8.284h0.416c2.875-3.673,5.43-5.897,9.461-7.736c4.086-1.864,8.404-2.484,12.588-2.484
		c5.303,0,9.652,0.723,13.051,2.162c3.395,1.442,6.07,3.44,8.021,5.996c1.957,2.556,3.328,5.67,4.119,9.342
		c0.789,3.672,1.188,7.738,1.188,12.201v44.339h-19.828v-40.73c0-5.951-0.932-10.392-2.793-13.322
		c-1.865-2.93-5.174-4.395-9.924-4.395c-5.402,0-9.316,1.607-11.736,4.814c-2.424,3.208-3.633,8.484-3.633,15.832v37.801h-19.725
		v-72.104H1012.189z"/>
	<path fill="#005C9B" d="M435.111,173.911c2.972,2.885,7.248,4.324,12.824,4.324c3.995,0,7.435-1.004,10.317-3.014
		c2.882-2.011,4.646-4.137,5.299-6.383h17.425c-2.788,8.66-7.064,14.854-12.827,18.577s-12.734,5.586-20.911,5.586
		c-5.67,0-10.781-0.907-15.338-2.72c-4.557-1.814-8.419-4.393-11.582-7.742c-3.166-3.35-5.609-7.348-7.332-11.998
		c-1.724-4.65-2.582-9.768-2.582-15.351c0-5.392,0.884-10.417,2.653-15.067c1.768-4.65,4.279-8.674,7.538-12.069
		c3.259-3.395,7.141-6.066,11.653-8.022c4.511-1.953,9.506-2.93,14.989-2.93c6.134,0,11.479,1.188,16.031,3.559
		c4.554,2.375,8.297,5.563,11.224,9.565s5.041,8.561,6.341,13.68c1.301,5.117,1.769,10.468,1.397,16.051h-52
		C430.51,166.375,432.136,171.029,435.111,173.911z M457.484,135.891c-2.369-2.611-5.97-3.917-10.801-3.917
		c-3.163,0-5.786,0.539-7.877,1.61c-2.091,1.071-3.766,2.401-5.021,3.985c-1.256,1.584-2.137,3.266-2.646,5.038
		c-0.513,1.771-0.813,3.355-0.907,4.754h32.202C461.505,142.325,459.855,138.501,457.484,135.891z"/>
	<path fill="#005C9B" d="M512.381,91.597v99.546h-19.827V91.597H512.381z"/>
	<path fill="#005C9B" d="M543.264,173.292c0.884,1.529,2.023,2.777,3.421,3.75c1.394,0.971,3.001,1.69,4.814,2.152
		c1.813,0.465,3.698,0.693,5.653,0.693c1.394,0,2.858-0.162,4.394-0.487c1.536-0.326,2.929-0.836,4.184-1.532
		c1.255-0.697,2.304-1.631,3.139-2.792c0.839-1.161,1.259-2.627,1.259-4.396c0-2.975-1.979-5.208-5.927-6.695
		c-3.952-1.488-9.458-2.979-16.525-4.467c-2.885-0.651-5.699-1.416-8.442-2.301c-2.743-0.884-5.183-2.045-7.322-3.488
		c-2.139-1.442-3.859-3.256-5.16-5.443c-1.304-2.186-1.952-4.86-1.952-8.022c0-4.65,0.907-8.461,2.72-11.44
		c1.813-2.975,4.208-5.324,7.183-7.044c2.975-1.72,6.325-2.93,10.045-3.627c3.721-0.697,7.532-1.049,11.439-1.049
		c3.903,0,7.693,0.375,11.365,1.117c3.671,0.745,6.95,2,9.834,3.769c2.881,1.768,5.275,4.118,7.184,7.047
		c1.906,2.93,3.045,6.628,3.42,11.095h-18.793c-0.281-3.831-1.723-6.422-4.329-7.777c-2.606-1.355-5.677-2.033-9.213-2.033
		c-1.116,0-2.326,0.071-3.63,0.209c-1.304,0.142-2.491,0.445-3.56,0.91c-1.071,0.465-1.978,1.139-2.724,2.023
		c-0.745,0.884-1.116,2.072-1.116,3.559c0,1.769,0.648,3.211,1.952,4.328c1.3,1.116,2.998,2.023,5.092,2.72
		c2.091,0.7,4.485,1.326,7.182,1.885c2.693,0.559,5.436,1.164,8.226,1.816c2.881,0.652,5.693,1.443,8.436,2.372
		c2.744,0.933,5.184,2.165,7.322,3.701c2.141,1.536,3.859,3.443,5.16,5.722c1.305,2.281,1.955,5.099,1.955,8.448
		c0,4.747-0.955,8.722-2.857,11.933c-1.908,3.211-4.396,5.797-7.465,7.748c-3.068,1.956-6.58,3.33-10.528,4.121
		c-3.952,0.787-7.971,1.185-12.062,1.185c-4.185,0-8.276-0.416-12.274-1.252c-3.999-0.836-7.555-2.227-10.668-4.176
		c-3.118-1.949-5.673-4.524-7.674-7.726c-1.998-3.201-3.091-7.215-3.275-12.043h18.794
		C541.941,169.935,542.38,171.764,543.264,173.292z"/>
	<path fill="#005C9B" d="M862.404,91.597v53.399l24.953-25.932h23.42l-27.184,26.49l30.25,45.588h-23.977l-19.795-32.202
		l-7.668,7.39v24.813h-19.826V91.597H862.404z"/>
	<path fill="#005C9B" d="M936.246,173.911c2.975,2.885,7.252,4.324,12.828,4.324c3.994,0,7.432-1.004,10.313-3.014
		c2.883-2.011,4.646-4.137,5.299-6.383h17.426c-2.787,8.66-7.064,14.854-12.824,18.577c-5.764,3.724-12.734,5.586-20.91,5.586
		c-5.67,0-10.785-0.907-15.342-2.72c-4.557-1.814-8.416-4.393-11.582-7.742c-3.164-3.35-5.607-7.348-7.328-11.998
		c-1.723-4.65-2.584-9.768-2.584-15.351c0-5.392,0.883-10.417,2.652-15.067c1.768-4.65,4.281-8.674,7.541-12.069
		c3.256-3.395,7.141-6.066,11.652-8.022c4.508-1.953,9.508-2.93,14.99-2.93c6.135,0,11.479,1.188,16.031,3.559
		c4.553,2.375,8.293,5.563,11.221,9.565c2.926,4.001,5.043,8.561,6.344,13.68c1.301,5.117,1.766,10.468,1.395,16.051h-52
		C931.648,166.375,933.273,171.029,936.246,173.911z M958.623,135.891c-2.373-2.611-5.975-3.917-10.805-3.917
		c-3.16,0-5.785,0.539-7.877,1.61s-3.764,2.401-5.018,3.985c-1.256,1.584-2.141,3.266-2.65,5.038
		c-0.51,1.771-0.813,3.355-0.906,4.754h32.205C962.643,142.325,960.99,138.501,958.623,135.891z"/>
	<path fill="#005C9B" d="M380.333,91.552v34.813h-0.206c-2.603-3.277-5.194-5.196-9.062-6.902
		c-4.076-1.798-8.003-2.404-12.282-2.404c-5.302,0-9.949,1.049-13.947,3.14c-3.998,2.094-7.325,4.86-9.975,8.303
		c-2.649,3.44-4.65,7.416-5.999,11.927c-1.349,4.511-2.02,9.188-2.02,14.022c0,5.023,0.671,9.861,2.02,14.512
		c1.346,4.649,3.343,8.768,5.993,12.346c2.646,3.582,6.015,6.418,10.104,8.513c4.089,2.091,8.826,3.116,14.215,3.137
		c3.5,0.013,8.322-0.448,12.125-2.017c3.824-1.578,6.907-3.508,9.757-7.372h0.277v7.575h18.826V91.552H380.333z M362.953,178.436
		c-13.067,0-18.563-12.135-18.563-23.436c0-11.854,4.768-23.37,18.578-23.37c13.665,0,18.108,11.516,18.108,23.233
		C381.076,166.722,376.916,178.436,362.953,178.436z"/>
	<path fill="#005C9B" d="M600.297,91.544v99.591h18.826v-7.575h0.277c2.851,3.864,5.934,5.794,9.758,7.372
		c3.803,1.568,8.625,2.029,12.125,2.017c5.389-0.021,10.126-1.046,14.215-3.137c4.088-2.095,7.457-4.931,10.104-8.513
		c2.649-3.578,4.646-7.696,5.992-12.346c1.35-4.65,2.021-9.488,2.021-14.512c0-4.834-0.671-9.511-2.021-14.022
		c-1.349-4.511-3.35-8.487-5.998-11.927c-2.65-3.443-5.977-6.209-9.975-8.303c-3.999-2.091-8.646-3.14-13.947-3.14
		c-4.279,0-8.207,0.606-12.282,2.404c-3.867,1.707-6.459,3.625-9.062,6.902h-0.206V91.544H600.297z M619.381,154.856
		c0-11.717,4.443-23.233,18.108-23.233c13.811,0,18.578,11.516,18.578,23.37c0,11.301-5.497,23.436-18.563,23.436
		C623.541,178.428,619.381,166.714,619.381,154.856z"/>
</g>
</svg>
